<svg aria-hidden="true" style="position: absolute; width: 0; height: 0; overflow: hidden;" version="1.1" xmlns="http://www.w3.org/2000/svg" xmlns:xlink="http://www.w3.org/1999/xlink">
<defs>
<symbol id="icon-ruan" viewBox="0 0 32 32">
<path d="M17.911 1.281c-0.086 0.027-0.511 0.108-0.942 0.188s-0.963 0.205-1.184 0.275c-0.576 0.188-1.357 0.565-1.728 0.834-0.673 0.479-1.588 1.206-1.927 1.529l-0.355 0.334-0.221-0.129c-0.684-0.404-1.728-0.56-2.498-0.371-0.458 0.113-0.689 0.291-0.921 0.705-0.145 0.258-0.269 0.377-1.222 1.168l-0.242 0.205-0.129-0.124c-0.151-0.14-0.49-0.194-1.281-0.199-0.657-0.005-0.78 0.022-0.78 0.178s0.35 0.748 0.619 1.039c0.188 0.205 0.258 0.242 0.528 0.285 0.172 0.027 0.345 0.038 0.388 0.016 0.097-0.032 0.097-0.070 0 0.657-0.118 0.948-0.118 1.244 0.022 1.653 0.129 0.393 0.118 0.511-0.054 0.42-0.188-0.102-0.388 0.102-0.743 0.775-0.129 0.253-0.097 0.312 0.237 0.431 0.135 0.043 0.323 0.14 0.42 0.215 0.102 0.075 0.215 0.14 0.253 0.14s0.226-0.086 0.415-0.194c0.328-0.183 0.35-0.188 0.474-0.108 0.070 0.048 0.156 0.086 0.183 0.086 0.032 0 0.194 0.086 0.361 0.194s0.49 0.264 0.716 0.345c0.468 0.172 0.441 0.081 0.307 0.98-0.048 0.312-0.102 0.786-0.118 1.050-0.032 0.447-0.022 0.511 0.167 1.082 0.285 0.867 0.603 1.281 1.050 1.378 0.135 0.027 0.135 0.032 0.102 0.474-0.016 0.248-0.059 0.517-0.097 0.598-0.151 0.377-0.027 0.856 0.269 1.061 0.366 0.253 0.447 0.452 0.296 0.743-0.156 0.296-0.156 0.517-0.005 1.087 0.183 0.716 0.307 0.969 0.657 1.346l0.285 0.312 0.022 0.56c0.027 0.91 0.269 1.394 0.84 1.685 0.275 0.14 0.834 0.312 1.308 0.404 0.291 0.059 0.312 0.075 0.28 0.178-0.081 0.269-0.081 0.345 0.027 0.511 0.14 0.226 0.528 0.409 0.883 0.415 0.242 0.005 0.269 0.022 0.355 0.194 0.054 0.102 0.226 0.302 0.388 0.447 0.592 0.533 0.856 0.813 0.883 0.931 0.048 0.194-0.108 0.576-0.441 1.055-0.657 0.937-0.77 1.114-0.878 1.405-0.151 0.409-0.194 0.786-0.113 1.028 0.086 0.253 0.388 0.598 0.657 0.732 0.447 0.226 1.373 0.339 1.804 0.215 0.221-0.065 0.808-0.522 0.856-0.662 0.054-0.167-0.048-0.226-0.264-0.156-0.398 0.135-1.497-0.124-1.68-0.393-0.188-0.264-0.038-0.619 0.318-0.754 0.485-0.183 0.894-0.824 0.996-1.54 0.032-0.221 0.118-0.581 0.194-0.802 0.156-0.463 0.167-0.705 0.054-1.034-0.059-0.167-0.081-0.388-0.070-0.732 0.016-0.463 0.005-0.501-0.118-0.635-0.075-0.081-0.199-0.183-0.28-0.232-0.14-0.081-0.145-0.102-0.113-0.371 0.027-0.253 0.016-0.307-0.092-0.42-0.070-0.075-0.172-0.135-0.226-0.135s-0.097-0.022-0.097-0.043c0-0.081-0.393-0.506-0.608-0.662-0.237-0.172-0.581-0.205-0.974-0.097-0.334 0.092-0.42 0.043-0.592-0.366-0.124-0.291-0.248-0.447-0.56-0.754l-0.404-0.382 0.118-0.194c0.242-0.388 0.199-1.427-0.086-2.197l-0.14-0.377 0.199-0.194c0.108-0.108 0.248-0.28 0.312-0.382 0.070-0.102 0.145-0.183 0.172-0.183 0.032 0.005 0.129 0.226 0.221 0.49 0.178 0.517 0.345 0.802 0.668 1.163 0.113 0.118 0.258 0.318 0.328 0.436 0.167 0.275 0.495 0.673 0.555 0.673 0.097 0-0.022-0.463-0.188-0.727-0.603-0.969-0.646-1.055-0.721-1.583-0.108-0.695-0.237-1.868-0.237-2.127v-0.205l0.151 0.097c0.264 0.172 1.061 0.603 1.297 0.7 0.178 0.070 0.242 0.075 0.291 0.027 0.048-0.054 0.005-0.118-0.188-0.302-0.145-0.129-0.258-0.258-0.258-0.285 0-0.032-0.14-0.145-0.318-0.248-0.339-0.21-0.646-0.511-0.786-0.791-0.097-0.183-0.086-0.248 0.118-0.963l0.086-0.291 0.302 0.894c0.318 0.926 0.441 1.174 0.571 1.174 0.14 0 0.129-0.086-0.059-0.517-0.291-0.657-0.345-0.969-0.382-2.078l-0.032-1.001 0.145-0.242c0.172-0.296 0.867-0.948 2.132-2.003 0.614-0.511 0.98-0.78 1.044-0.77 0.097 0.016 0.108 0.059 0.092 0.608-0.005 0.366 0.016 0.738 0.065 0.969 0.178 0.845 0.619 1.707 1.206 2.337l0.269 0.296-0.086 0.194-0.081 0.194-0.307-0.156-0.302-0.156 0.054-0.183c0.043-0.135 0.038-0.205-0.005-0.248-0.065-0.065-0.135 0.059-0.194 0.339-0.054 0.258-0.237 0.425-0.463 0.425-0.463 0-2.084-0.673-2.337-0.974-0.221-0.258-0.161-0.592 0.178-0.974 0.221-0.253 0.215-0.35-0.016-0.393-0.651-0.124-0.931 0.888-0.382 1.4 0.194 0.183 1.771 0.937 2.256 1.077 0.355 0.102 0.614 0.048 0.77-0.167l0.097-0.129 0.307 0.205 0.312 0.199v0.28c0 0.253 0.016 0.291 0.178 0.409 0.092 0.075 0.398 0.248 0.673 0.382 0.42 0.21 0.495 0.264 0.441 0.328-0.081 0.097-0.032 0.242 0.070 0.242 0.113 0 0.576-0.215 0.576-0.264 0-0.081-0.129-0.151-0.511-0.269-0.571-0.183-1.125-0.463-1.206-0.619-0.059-0.108-0.059-0.194 0.016-0.533 0.097-0.42 0.242-0.716 0.248-0.49 0 0.086 0.059 0.14 0.205 0.199 0.355 0.145 0.377-0.016 0.065-0.479-0.21-0.318-0.339-0.711-0.398-1.233l-0.032-0.269 0.14 0.161c0.258 0.302 0.91 0.953 1.007 1.001 0.048 0.032 0.118 0.038 0.145 0.022 0.065-0.043 0.070-0.248 0.005-0.415-0.075-0.205-0.124-0.528-0.075-0.528 0.022 0 0.118 0.113 0.205 0.248 0.221 0.334 0.921 0.937 1.087 0.937 0.102 0 0.086-0.21-0.065-0.786-0.075-0.285-0.135-0.657-0.129-0.824v-0.302l0.237 0.463c0.291 0.576 0.458 1.055 0.458 1.335 0 0.167-0.059 0.302-0.269 0.614-0.285 0.425-0.808 1.039-1.093 1.281l-0.167 0.145 0.312 0.070c0.431 0.097 0.544 0.038 0.856-0.409 0.14-0.205 0.285-0.388 0.318-0.409 0.081-0.048 0.312 0.145 0.312 0.258 0 0.14-0.167 0.328-0.571 0.635l-0.404 0.312-0.307-0.038-0.307-0.032-0.291 0.522c-0.242 0.441-0.393 0.63-0.904 1.136-0.393 0.388-0.608 0.641-0.587 0.689 0.048 0.118 0.441 0.092 0.926-0.075l0.436-0.145-0.075 0.237c-0.075 0.264-0.054 0.436 0.070 0.436 0.043 0 0.237-0.161 0.436-0.355l0.366-0.35 0.016 0.161c0.022 0.21-0.312 1.055-0.592 1.497-0.113 0.183-0.404 0.506-0.641 0.716-0.232 0.215-0.425 0.42-0.425 0.463 0 0.151 0.264 0.081 0.468-0.129 0.113-0.113 0.404-0.355 0.641-0.533 0.743-0.565 1.136-1.125 1.26-1.787 0.086-0.474 0.108-0.495 0.996-1.044 0.619-0.382 1.368-1.071 1.626-1.502 0.253-0.42 0.598-1.464 0.7-2.127l0.092-0.581 0.603 0.302c0.878 0.441 1.249 0.463 1.475 0.092 0.172-0.285 0.129-0.834-0.075-0.969-0.032-0.022-0.118-0.043-0.188-0.043-0.113 0-0.124 0.016-0.097 0.161 0.075 0.35-0.226 0.398-0.824 0.129-0.415-0.188-0.592-0.345-0.802-0.689-0.258-0.425-0.285-0.834-0.092-1.378 0.237-0.684 0.285-1.001 0.264-1.664-0.027-0.878-0.269-1.556-0.878-2.455-0.14-0.21-0.415-0.646-0.619-0.969-0.42-0.684-0.921-1.346-1.427-1.884-0.194-0.21-0.458-0.528-0.581-0.705-0.393-0.581-1.12-1.152-1.475-1.152-0.167 0-0.485 0.108-0.963 0.328l-0.355 0.167-0.307-0.199c-0.415-0.264-0.899-0.474-1.524-0.668-0.646-0.194-0.856-0.226-1.066-0.161zM9.577 5.836c0.081 0.108 0.382 0.441 0.668 0.743 0.614 0.641 0.657 0.711 0.571 0.894-0.054 0.108-0.167 0.156-0.63 0.275-0.802 0.21-1.712 0.382-1.852 0.345-0.226-0.054-0.603-0.436-1.195-1.211-0.011-0.011-0.205 0.032-0.436 0.097-0.226 0.059-0.42 0.102-0.431 0.097-0.038-0.038 0.21-0.361 0.275-0.361 0.043 0 0.145-0.027 0.226-0.054l0.145-0.059-0.145-0.151c-0.145-0.151-0.151-0.156-0.043-0.215 0.092-0.048 0.135-0.027 0.275 0.129l0.161 0.188 0.592-0.21c0.323-0.113 0.786-0.318 1.034-0.452 0.248-0.14 0.495-0.248 0.544-0.253 0.048 0 0.161 0.092 0.242 0.199zM5.852 5.911c0.221 0.054 0.619 0.21 0.619 0.242 0 0.011-0.043 0.124-0.102 0.248-0.054 0.129-0.14 0.323-0.188 0.441l-0.092 0.21-0.328-0.032c-0.366-0.032-0.479-0.113-0.883-0.646-0.269-0.361-0.291-0.452-0.113-0.522 0.135-0.059 0.754-0.027 1.087 0.059zM25.755 7.155c0.608 0.834 0.84 1.427 0.883 2.272 0.027 0.565-0.038 1.233-0.097 1.055-0.232-0.657-0.775-2.423-0.878-2.853-0.070-0.312-0.145-0.619-0.167-0.689-0.016-0.065-0.022-0.118-0.011-0.118s0.135 0.151 0.269 0.334zM9.539 8.926c0.668 0.070 1.093 0.194 1.12 0.334 0.038 0.183-1.324 2.164-1.572 2.293-0.161 0.086-0.388 0.027-1.233-0.334-0.361-0.151-0.684-0.269-0.716-0.264-0.027 0.005-0.102-0.032-0.161-0.086s-0.172-0.145-0.253-0.199c-0.151-0.097-0.258-0.258-0.328-0.495-0.038-0.118-0.027-0.118 0.393 0.065l0.431 0.183 0.188-0.253c0.102-0.14 0.291-0.425 0.42-0.63 0.501-0.808 0.355-0.759 1.712-0.614zM6.148 10.272c0.043 0.065 0.188 0.253 0.318 0.42 0.135 0.167 0.21 0.307 0.178 0.318s-0.151 0.081-0.264 0.156c-0.156 0.108-0.221 0.124-0.285 0.075-0.043-0.032-0.221-0.129-0.393-0.221l-0.307-0.161 0.113-0.232c0.065-0.124 0.172-0.307 0.248-0.404 0.145-0.188 0.242-0.178 0.393 0.048zM10.105 13.341c-0.043 0.161-0.092 0.56-0.108 0.888-0.043 0.808-0.070 1.104-0.102 1.141-0.065 0.059-0.786-0.113-0.872-0.21-0.145-0.161-0.151-0.522-0.022-0.963 0.161-0.549 0.328-0.861 0.748-1.416l0.355-0.479 0.043 0.371c0.032 0.275 0.022 0.441-0.043 0.668zM14.789 23.392c0.092 0.065 0.264 0.657 0.21 0.705-0.027 0.027-0.296 0.059-0.603 0.075-0.538 0.027-0.555 0.022-0.635-0.102-0.065-0.092-0.070-0.167-0.038-0.275 0.092-0.269 0.856-0.56 1.066-0.404zM16.032 23.532c0.102 0.102 0.183 0.205 0.183 0.237 0 0.027-0.097 0.092-0.215 0.14-0.167 0.065-0.248 0.075-0.328 0.027-0.059-0.032-0.183-0.059-0.269-0.059-0.221-0.005-0.35-0.237-0.232-0.415 0.065-0.092 0.135-0.113 0.382-0.113 0.264 0 0.318 0.022 0.479 0.183zM16.888 24.103c0.075 0.086 0.086 0.14 0.048 0.28-0.086 0.285-0.501 0.334-0.834 0.092-0.151-0.108-0.156-0.118-0.065-0.183 0.054-0.038 0.194-0.097 0.312-0.135s0.237-0.086 0.269-0.113c0.081-0.075 0.161-0.059 0.269 0.059zM15.079 24.447c0.048 0.054 0.022 0.172-0.108 0.506-0.151 0.388-0.194 0.447-0.35 0.495-0.323 0.108-0.78-0.215-0.695-0.485 0.048-0.156 0.328-0.35 0.673-0.474 0.377-0.129 0.404-0.135 0.479-0.043zM15.817 24.614c0.35 0.269 0.361 0.285 0.242 0.479-0.124 0.199-0.468 0.35-0.797 0.35-0.215 0.005-0.296-0.054-0.183-0.124 0.027-0.022 0.113-0.199 0.194-0.404 0.081-0.221 0.178-0.388 0.232-0.398 0.048-0.016 0.102-0.027 0.113-0.032 0.011 0 0.102 0.054 0.199 0.129zM17.179 25.368c0.086 0.043 0.167 0.113 0.183 0.156 0.038 0.097-0.011 0.302-0.075 0.302-0.043 0-0.371-0.447-0.371-0.506 0-0.054 0.108-0.038 0.264 0.048z"></path>
<path d="M8.92 6.212c-0.092 0.048-0.167 0.086-0.172 0.092-0.011 0.005-0.048 0.28-0.092 0.603s-0.092 0.651-0.113 0.732c-0.038 0.145-0.032 0.151 0.14 0.118 0.102-0.022 0.215-0.054 0.258-0.075 0.086-0.043 0.431-1.039 0.436-1.244 0-0.242-0.221-0.35-0.458-0.226z"></path>
<path d="M7.849 6.632l-0.479 0.172 0.791 0.834 0.075-0.21c0.194-0.555 0.253-1.001 0.124-0.98-0.016 0.005-0.248 0.086-0.511 0.183z"></path>
<path d="M9.518 7.041c-0.048 0.269-0.081 0.501-0.075 0.511 0.022 0.016 0.958-0.231 0.991-0.264 0.032-0.027-0.711-0.738-0.77-0.738-0.027 0-0.092 0.221-0.145 0.49z"></path>
<path d="M8.538 9.443c0.016 0.113 0.043 0.35 0.059 0.528 0.043 0.436 0.188 1.174 0.242 1.227 0.022 0.027 0.113-0.059 0.205-0.188l0.161-0.237-0.075-0.323c-0.043-0.172-0.092-0.517-0.108-0.765l-0.038-0.441h-0.479l0.032 0.199z"></path>
<path d="M9.302 9.443c0.016 0.086 0.054 0.328 0.092 0.544l0.065 0.398 0.765-1.023-0.323-0.032c-0.592-0.059-0.63-0.054-0.598 0.113z"></path>
<path d="M7.827 10.030l-0.334 0.506 0.404 0.199c0.221 0.108 0.409 0.188 0.425 0.178 0.027-0.027-0.059-0.878-0.118-1.195l-0.038-0.199-0.339 0.511z"></path>
<path d="M19.672 15.79c-0.156 0.075-0.28 0.167-0.28 0.205 0 0.108 0.258 0.318 0.345 0.285 0.124-0.048 0.371-0.452 0.334-0.549-0.038-0.108-0.070-0.102-0.398 0.059z"></path>
</symbol>
<symbol id="icon-quill" viewBox="0 0 32 32">
<path d="M0 32c4-12 14.469-32 32-32-8.219 6.594-12 22-18 22s-6 0-6 0l-6 10h-2z"></path>
</symbol>
<symbol id="icon-play" viewBox="0 0 32 32">
<path d="M30.662 5.003c-4.488-0.645-9.448-1.003-14.662-1.003s-10.174 0.358-14.662 1.003c-0.86 3.366-1.338 7.086-1.338 10.997s0.477 7.63 1.338 10.997c4.489 0.645 9.448 1.003 14.662 1.003s10.174-0.358 14.662-1.003c0.86-3.366 1.338-7.086 1.338-10.997s-0.477-7.63-1.338-10.997zM12 22v-12l10 6-10 6z"></path>
</symbol>
<symbol id="icon-credit-card" viewBox="0 0 32 32">
<path d="M29 4h-26c-1.65 0-3 1.35-3 3v18c0 1.65 1.35 3 3 3h26c1.65 0 3-1.35 3-3v-18c0-1.65-1.35-3-3-3zM3 6h26c0.542 0 1 0.458 1 1v3h-28v-3c0-0.542 0.458-1 1-1zM29 26h-26c-0.542 0-1-0.458-1-1v-9h28v9c0 0.542-0.458 1-1 1zM4 20h2v4h-2zM8 20h2v4h-2zM12 20h2v4h-2z"></path>
</symbol>
<symbol id="icon-bubbles" viewBox="0 0 36 32">
<path d="M15 0v0c8.284 0 15 5.435 15 12.139s-6.716 12.139-15 12.139c-0.796 0-1.576-0.051-2.339-0.147-3.222 3.209-6.943 3.785-10.661 3.869v-0.785c2.008-0.98 3.625-2.765 3.625-4.804 0-0.285-0.022-0.564-0.063-0.837-3.392-2.225-5.562-5.625-5.562-9.434 0-6.704 6.716-12.139 15-12.139zM31.125 27.209c0 1.748 1.135 3.278 2.875 4.118v0.673c-3.223-0.072-6.181-0.566-8.973-3.316-0.661 0.083-1.337 0.126-2.027 0.126-2.983 0-5.732-0.805-7.925-2.157 4.521-0.016 8.789-1.464 12.026-4.084 1.631-1.32 2.919-2.87 3.825-4.605 0.961-1.84 1.449-3.799 1.449-5.825 0-0.326-0.014-0.651-0.039-0.974 2.268 1.873 3.664 4.426 3.664 7.24 0 3.265-1.88 6.179-4.82 8.086-0.036 0.234-0.055 0.474-0.055 0.718z"></path>
</symbol>
<symbol id="icon-contrast" viewBox="0 0 32 32">
<path d="M16 0c-8.837 0-16 7.163-16 16s7.163 16 16 16 16-7.163 16-16-7.163-16-16-16zM4 16c0-6.627 5.373-12 12-12v24c-6.627 0-12-5.373-12-12z"></path>
</symbol>
</defs>
</svg>
